<?xml version="1.0" encoding="UTF-8" standalone="no"?>
<!-- Created with Inkscape (http://www.inkscape.org/) -->

<svg
   width="34.797245mm"
   height="33.896347mm"
   viewBox="0 0 34.797245 33.896347"
   version="1.1"
   id="svg1"
   xmlns="http://www.w3.org/2000/svg"
   xmlns:svg="http://www.w3.org/2000/svg">
  <defs
     id="defs1" />
  <g
     id="layer11"
     style="display:inline"
     transform="translate(-57.601381,-88.051822)">
    <path
       style="fill:#4ca2f0;fill-opacity:1;stroke:#000000;stroke-width:0.324252;stroke-linecap:round;stroke-linejoin:miter;stroke-dasharray:none;stroke-opacity:1"
       id="path17"
       d="m 82,107 c -0.908588,1.53704 -5.502753,3.14679 -7.141264,3.85623 -1.638512,0.70944 -5.955998,2.95821 -7.698578,2.56906 -1.742579,-0.38914 -4.693225,-4.26101 -5.874267,-5.6001 -1.181042,-1.33909 -4.653929,-4.75036 -4.822315,-6.5279 -0.168386,-1.777545 2.60218,-5.780249 3.510767,-7.317288 0.908588,-1.537039 3.079712,-5.894089 4.718223,-6.603525 1.638512,-0.709436 6.301461,0.688625 8.044041,1.077772 1.74258,0.389147 6.557295,1.107605 7.738337,2.446695 1.181042,1.339089 1.292337,6.205842 1.460723,7.983387 C 82.104053,100.66188 82.908588,105.46296 82,107 Z"
       transform="matrix(0.87539958,-0.96533983,0.96528769,0.87537348,-83.007356,86.376694)" />
  </g>
</svg>
