<?xml version="1.0" encoding="UTF-8" standalone="no"?>
<!-- Created with Inkscape (http://www.inkscape.org/) -->

<svg
   width="35.081238mm"
   height="38.468769mm"
   viewBox="0 0 35.081238 38.468769"
   version="1.1"
   id="svg1"
   xmlns="http://www.w3.org/2000/svg"
   xmlns:svg="http://www.w3.org/2000/svg">
  <defs
     id="defs1" />
  <g
     id="layer12"
     style="display:inline"
     transform="translate(-57.459383,-45.765613)">
    <path
       style="fill:#f17cd8;fill-opacity:1;stroke:#000000;stroke-width:0.407117;stroke-linecap:round;stroke-linejoin:miter;stroke-dasharray:none;stroke-opacity:1"
       id="path16"
       d="m 50.873309,109.16446 c -1.011982,1.7528 -5.780848,4.26827 -7.533652,5.28025 -1.752804,1.01198 -6.315694,3.88421 -8.339657,3.88421 -2.023964,0 -6.586854,-2.87223 -8.339658,-3.88421 -1.752804,-1.01198 -6.521669,-3.52745 -7.533651,-5.28025 -1.011982,-1.7528 -0.806007,-7.1405 -0.806007,-9.164461 0,-2.023963 -0.205975,-7.411655 0.806007,-9.164458 1.011982,-1.752804 5.780848,-4.268271 7.533652,-5.280252 1.752804,-1.011982 6.315694,-3.884208 8.339657,-3.884207 2.023964,0 6.586854,2.872225 8.339658,3.884207 1.752804,1.011982 6.521669,3.527448 7.533651,5.280252 1.011982,1.752804 0.806007,7.140496 0.806007,9.164459 0,2.02396 0.205975,7.41166 -0.806007,9.16446 z"
       transform="matrix(1.0378958,0,0,1.0378745,38.673649,-38.787452)" />
  </g>
</svg>
